<?xml version="1.0" standalone="no"?>
<!DOCTYPE svg PUBLIC "-//W3C//DTD SVG 20010904//EN"
 "http://www.w3.org/TR/2001/REC-SVG-20010904/DTD/svg10.dtd">
<svg version="1.0" xmlns="http://www.w3.org/2000/svg"
 width="430.000000pt" height="334.000000pt" viewBox="0 0 430.000000 334.000000"
 preserveAspectRatio="xMidYMid meet">

<g transform="translate(0.000000,334.000000) scale(0.100000,-0.100000)"
fill="#000000" stroke="none">
<path d="M0 1670 l0 -1670 2150 0 2150 0 0 1670 0 1670 -2150 0 -2150 0 0
-1670z m1483 387 l-6 -122 25 27 c61 64 158 55 193 -18 21 -44 36 -274 18
-274 -6 0 -13 49 -16 110 -6 106 -24 176 -50 192 -7 4 -29 8 -51 8 -31 0 -45
-7 -77 -39 l-39 -39 0 -85 c0 -96 -8 -147 -23 -147 -11 0 -2 453 9 497 15 55
23 3 17 -110z m-1133 70 c35 -27 89 -135 103 -202 3 -15 5 -16 9 -5 3 8 13 36
22 61 24 66 72 137 102 151 33 15 48 -2 63 -74 13 -59 15 -388 2 -388 -5 0
-11 87 -13 193 -5 193 -14 247 -43 247 -24 0 -82 -99 -104 -179 -11 -41 -23
-76 -26 -80 -10 -9 -23 19 -40 88 -19 76 -61 158 -87 172 -16 8 -21 4 -35 -28
-12 -29 -17 -83 -21 -225 -2 -104 -9 -188 -13 -188 -13 0 -11 325 2 380 18 79
45 105 79 77z m895 -92 l-7 -75 36 0 c20 0 36 -4 36 -10 0 -5 -19 -10 -41 -10
l-42 0 5 -98 c5 -104 16 -137 49 -147 24 -8 59 19 59 47 0 10 5 18 10 18 17 0
11 -36 -11 -64 -37 -47 -95 -26 -118 43 -6 19 -11 71 -11 117 0 82 0 83 -27
86 -41 5 -43 30 -2 26 l34 -3 8 73 c12 98 32 96 22 -3z m776 -35 c52 -14 90
-59 96 -113 l5 -44 -141 -5 c-78 -3 -144 -8 -147 -11 -12 -11 8 -66 33 -91 57
-58 139 -57 204 1 24 22 39 30 39 21 0 -16 -44 -60 -77 -77 -64 -33 -175 7
-208 75 -21 44 -21 123 -2 161 39 74 115 106 198 83z m936 -1 c39 -14 83 -59
83 -83 0 -16 -6 -12 -32 18 -67 77 -178 63 -225 -28 -22 -42 -20 -122 4 -155
62 -83 200 -70 240 23 17 40 17 41 21 13 5 -38 -20 -72 -68 -97 -131 -67 -269
46 -230 189 26 96 122 152 207 120z m420 -15 c50 -37 67 -70 71 -137 4 -82
-17 -124 -78 -154 -24 -13 -63 -23 -85 -23 -58 0 -126 37 -147 80 -20 39 -23
114 -7 157 14 37 47 72 84 89 41 20 129 13 162 -12z m341 3 c8 -6 21 -25 28
-42 l12 -29 15 36 c18 42 42 58 90 58 23 0 41 -8 58 -26 23 -24 24 -33 27
-170 2 -91 0 -144 -7 -144 -6 0 -11 55 -13 139 -3 120 -6 142 -22 160 -11 12
-29 21 -42 21 -68 0 -86 -39 -92 -197 -3 -68 -9 -123 -13 -123 -5 0 -9 46 -10
103 -1 121 -14 172 -52 201 -26 19 -30 19 -55 5 -43 -24 -56 -63 -62 -189 -7
-165 -24 -147 -28 29 -1 88 -7 150 -14 158 -15 18 -2 29 17 13 8 -7 15 -24 15
-39 l0 -26 19 32 c11 17 28 36 38 42 21 13 69 7 91 -12z m-1232 1 c3 -5 -36
-53 -88 -106 -51 -53 -113 -118 -137 -144 l-45 -48 66 7 c74 6 178 -4 178 -18
0 -5 -59 -9 -135 -9 -92 0 -135 4 -135 11 0 6 59 73 130 149 72 75 130 140
130 142 0 3 -29 3 -64 1 -69 -6 -176 4 -176 16 0 10 269 10 276 -1z m-1507
-23 l30 -26 3 23 c2 13 7 21 11 18 5 -3 8 -67 8 -142 -2 -129 -1 -137 19 -143
26 -8 26 -25 1 -25 -11 0 -27 10 -35 21 l-15 22 -27 -22 c-38 -30 -130 -30
-169 1 -77 60 -73 206 7 273 42 36 124 36 167 0z m1659 -261 c2 -13 -4 -24
-13 -28 -24 -9 -35 1 -35 30 0 21 4 25 23 22 13 -2 23 -11 25 -24z m-1838
-285 c0 -100 -2 -119 -13 -110 -10 8 -22 8 -43 -1 -57 -21 -125 38 -110 96 11
46 41 71 85 71 40 0 41 1 41 32 0 26 4 33 20 33 19 0 20 -7 20 -121z m1025 96
c0 -22 -31 -33 -47 -17 -17 17 -1 44 24 40 15 -2 23 -10 23 -23z m-1400 1 c29
-21 13 -47 -24 -40 -47 10 -77 -2 -91 -37 -11 -27 -11 -33 7 -57 17 -23 28
-27 69 -27 42 0 49 -3 49 -20 0 -23 -50 -41 -89 -31 -65 16 -103 93 -77 158
21 55 112 86 156 54z m705 -101 c0 -108 -1 -115 -20 -115 -19 0 -20 7 -20 115
0 108 1 115 20 115 19 0 20 -7 20 -115z m445 90 c0 -17 -8 -20 -52 -23 -45 -3
-53 -6 -53 -23 0 -15 7 -19 35 -19 31 0 35 -3 35 -25 0 -22 -4 -25 -35 -25
-28 0 -35 -4 -35 -20 0 -18 7 -20 56 -20 52 0 55 -1 52 -22 -3 -22 -8 -23 -78
-23 l-75 0 -3 99 c-1 55 0 106 2 113 4 10 24 13 78 11 65 -3 73 -5 73 -23z
m675 -10 c0 -28 -4 -35 -20 -35 -16 0 -20 7 -20 35 0 28 4 35 20 35 16 0 20
-7 20 -35z m-1659 -44 c40 -40 39 -82 -1 -123 -26 -25 -36 -29 -63 -24 -48 9
-80 51 -73 95 6 42 46 81 82 81 15 0 38 -12 55 -29z m354 17 c33 -15 32 -30
-6 -73 -30 -34 -34 -60 -6 -36 11 9 17 8 28 -5 20 -24 -24 -58 -66 -50 -80 16
-97 127 -25 163 31 16 42 16 75 1z m1036 -17 c40 -40 39 -82 -1 -123 -26 -25
-36 -29 -62 -24 -18 3 -40 13 -49 22 -41 37 -30 115 21 141 38 19 59 16 91
-16z m-681 -1 c0 -17 -7 -20 -45 -20 -25 0 -45 -4 -45 -10 0 -5 15 -10 33 -10
44 0 72 -29 63 -65 -8 -31 -45 -47 -100 -43 -34 2 -42 7 -44 26 -3 21 0 22 55
23 l58 1 -45 9 c-65 13 -88 52 -53 91 12 13 30 18 70 18 46 0 53 -2 53 -20z
m430 -7 c17 -21 20 -38 18 -82 -3 -48 -6 -56 -23 -56 -17 0 -20 8 -23 58 -2
40 -8 60 -18 64 -27 10 -44 -17 -44 -73 0 -47 -2 -54 -20 -54 -18 0 -20 7 -20
83 l0 83 54 2 c48 2 57 -1 76 -25z m90 -57 c0 -74 -3 -88 -22 -110 -30 -33
-83 -40 -83 -11 0 12 8 21 20 23 34 6 45 32 45 109 0 66 2 73 20 73 18 0 20
-7 20 -84z m250 37 c0 -56 10 -76 36 -71 16 3 20 14 22 61 3 53 5 57 27 57 25
0 25 -1 25 -84 0 -74 -3 -88 -22 -110 -30 -33 -83 -40 -83 -11 0 12 8 21 20
23 11 2 24 7 28 12 5 4 -3 5 -17 3 -18 -4 -32 2 -50 20 -22 22 -26 35 -26 87
0 53 2 60 20 60 17 0 20 -7 20 -47z m350 27 c0 -17 -7 -20 -44 -20 -25 0 -48
-4 -51 -10 -4 -6 8 -10 27 -10 64 0 93 -46 53 -86 -19 -19 -34 -24 -75 -24
-47 0 -50 2 -50 25 0 23 3 25 53 26 50 1 50 2 15 8 -47 10 -68 27 -68 57 0 38
26 54 86 54 47 0 54 -2 54 -20z"/>
<path d="M1945 1980 c-46 -10 -74 -28 -95 -63 -35 -56 -33 -57 115 -57 l135 0
0 25 c0 58 -85 110 -155 95z"/>
<path d="M3233 1979 c-73 -22 -115 -135 -76 -208 28 -54 66 -76 127 -75 87 0
146 57 146 139 0 102 -98 174 -197 144z"/>
<path d="M823 1942 c-73 -67 -65 -205 13 -240 52 -24 131 -5 154 37 13 25 13
141 0 175 -22 58 -118 74 -167 28z"/>
<path d="M684 1416 c-12 -31 0 -61 27 -64 36 -4 55 21 41 53 -13 28 -59 35
-68 11z"/>
<path d="M504 1416 c-12 -32 0 -61 28 -64 34 -4 54 27 38 58 -12 23 -58 27
-66 6z"/>
<path d="M877 1423 c-4 -3 -7 -15 -7 -25 0 -22 15 -16 30 13 8 14 7 19 -3 19
-8 0 -17 -3 -20 -7z"/>
<path d="M1894 1416 c-12 -32 0 -61 28 -64 34 -4 54 27 38 58 -12 23 -58 27
-66 6z"/>
</g>
</svg>
